<?xml version="1.0" encoding="utf-8"?>
<!-- Generator: Adobe Illustrator 24.0.1, SVG Export Plug-In . SVG Version: 6.00 Build 0)  -->
<svg version="1.1" id="Laag_1" xmlns="http://www.w3.org/2000/svg" xmlns:xlink="http://www.w3.org/1999/xlink" x="0px" y="0px"
	 viewBox="0 0 146.8 200" style="enable-background:new 0 0 146.8 200;" xml:space="preserve">
<style type="text/css">
	.st0{fill:#0328D2;}
	.st1{fill:#FFFFFF;stroke:#030304;stroke-miterlimit:10;}
</style>
<g>
	<path class="st0" d="M51.5,195.1c2-0.8,3.5-1.3,5-2c18-8.8,28.8-22.9,32-42.8c0.5-2.9,0.7-5.7,0.7-8.7c0-36.5,0-73.1,0-109.7
		c0-1.6-0.4-2-2-2C59.3,30,31.4,29.9,3.4,30c-1.4,0-1.9-0.2-1.9-1.8c0.1-8.4,0.1-16.8,0-25.2c0-1.4,0.3-1.7,1.7-1.7
		c29.7,0.1,59.3,0,89,0c16.9,0,33.8,0,50.7,0c1.2,0,1.6,0.2,1.6,1.6c0,45.4,0.1,90.7-0.1,136.1c-0.1,12.9-3.3,25-11.1,35.5
		c-7.2,9.7-17,15.4-28.4,18.9c-11.7,3.6-23.8,4.4-36,3.8C63.2,196.8,57.6,196.1,51.5,195.1z"/>
	<path class="st0" d="M66.3,148.5c0,14.2-11.5,25.6-25.6,25.6s-25.6-11.5-25.6-25.6c0-14.2,11.4-25.7,25.6-25.7
		C54.7,122.8,66.3,134.3,66.3,148.5z"/>
</g>
<path class="st1" d="M72.2,83.3"/>
</svg>
